<svg id="Layer_1" data-name="Layer 1" xmlns="http://www.w3.org/2000/svg" viewBox="0 0 418.65 494.32"><defs><style>.cls-1{fill:none;stroke:#000;stroke-miterlimit:10;}</style></defs><path class="cls-1" d="M7460.47,7217.11s-4.58-41-10.39-60.53.94-44.57,6.73-49.84,3.11-43.37,17.12-54.72c16.58-13.46,24.38-18.5,24.38-18.5s16.28,5,27.74,3c17.75-3.19,42.65.54,46.63,5.73s45.25,52.89,37.6,56.87,33,60.53,28.74,69.09,26.6,53.2,17.73,55.34,12.23,15.9,21.71,15.59,13.15-2.75,26.6,4.28,24.46,19,24.46,29.35,10.39,39.14,9.48,49.84,6.72,50.45,5.19,54.73,4,26,4,26,4.28,29.05,1.22,33.94-5.13-.31,1.1,11.62,11.74,25.07,6.24,36.38,0,17.43-4.89,18.95-15.9,0-56.87,0-95.69,2.14-111.9,0-28.12,2.14-21.4-6.42,9.48-14.37,17.43-15.59,7,2.14,17.73-3.67,14.37-7.64,23.85-15,12.23-16.2,17.73-13.14-4.89-2.45,11.92-2.45H7680s46.47.61,53.81-16.82-.61,19.88-22.62,19-32.49-8.29-48.69-8.29-8.2,5.5,19-21.06c30.52-29.77,42.5-48.92,29-29.66s-9.5,27.83-30.26,39.75-26.3,11.31-26.3,11.31.92-81.32,7-85-3.67,15.28,18.64-26.3,30.58-63.92,30.58-63.92-24.46,41-27.82,50.47-9.48,18.35-16.51,26.91-12.42,16.86,1.83-16.51c.35-.83-5.5-17.43-5.5-17.43l-3.67-20.48s8.87,36.68,6.11,39.44-6.42,10.08-10.7,26-12.23,37.3-11.31,43.11-3.36,25.38-4,28.43-2.45,9.48-2.45,9.48,13.45,4.89,17.73,5.81-11.61-4-24.15-5.5-14.37,7.64-14.67-2.45,9.47,23.54,7.94,23.54-5.5-35.77-15.28-39.13-16.82,2.14-38.52,7-6.73,0-25.69-3.67a93.91,93.91,0,0,0-33.63-.61s-4,4,13.76,15.59,43.11,11,27.21,2.14a112.89,112.89,0,0,0-32.1-11.61s-10.7-4.59-31.49-2.45c-18.14,1.87-17.66,20-21.91,4.94l.93,3,11.06-6,.9-7.08a364,364,0,0,0-12.15-34.4c-7.57-18.34-16.05-112.58-20.35-114.65s5.9,80.26,14.39,89-16.74,4.59-16.74,4.59-20.87-82.55-15.83-81.63,8.18,82.66,11.7,85.53c29.55,24,25.45,59.28,25.45,59.28l.64,2.37c-.62-2.21-1.35-5.13-2.24-8.91-7-29.66-2.51-31.68-15.38-40.36-13.36-9-11.35-7.35-15.27-8.78-3-1.08-7-6.89-10.4-4.29-1.54,1.19,1.83,9.27,5.55,12.89,1.81,1.75,6.1,6.74,8.29,6.94,1.24.12-1.87,3.16,1.26-1.56.69-1-1.64,0-1.26,1.56.56,2.34,5.47,6.78,6.87,9.9,3.19,7.05,7.13,3.67-9.32-10.78-16.89-14.82-28.66-13.6-36.31-11.77s0,7.8,0,7.8,4.59,3.44,18,8.79c21.86,8.74,26,17.12,26,17.12s-13.62-10.76-26-17.12a49.29,49.29,0,0,0-19.15-5.5c-3.78,0-1.34,5.19-1.34,5.19s3.25,1.23,18.84,13.46.42,8.56,18.46,18.95,19.87,12.84,23.54,9.17-28.85,35.35-42.8,44.56c0,0-9.1,1.32,15.9-19.79s70.62-42.5,108.84-40.67,70.25-10.94,76.74,4.9,6.42,41.88,6.42,41.88-61.15,30-67,35.95-211.87,1.58-211.87,1.58-.69-19.18-.46-23.16,11.54-55.87,14.83-65,4.43-14.83,3-20.56,1.45-8,1.68-10.09-2.21-12.23,2.07-16.44,5.58-9.17,10.09-8.71,1.14-4.66,2.9-5.12,6.65-5.66,8.41-12.23,36.53-79.49,47.84-77.2l2.14-2.14s19.27-11.77,23.7-9.93,0-37-2.6-43.72-6.83-39.29-8.31-44-5.45-90.34,13.66-115.57,31.95-23.54,31.95-23.54,7.66-11.38,19.84-11.73c23.92-.69,45.14,12.92,50.74,16.36,37.61,23.08,62.87,85.77,69.14,108.67s41.58,72,51.67,101-6.27.92-15.29-1.68-26.29,2.9-28.58-2.45-20.49-16.2-14.22-19.1-4.74-14.67-4.74-14.67-5,8.09-12.38,9.77a73.71,73.71,0,0,1-9.79,1.84s-1.68-14.07-4.12-19.26-8.56-14.22-6-13.76,4.58-8.71,5.35-8.71,11.92-19.27-1.53-52-17.12-23.39-19-32.86-11.8-21.71-13.08-20.34-.52-3.05-4.5-4.74-2.76-6.31-6.88-9.7c-4.81-4-6-5.28-23.39-3.9s-28-3.21-28-3.21-11.31,18.34-23.39,26-17.27,50.9-6.42,58.54,2.29-3.05,2.29-3.05,2.76-5.2,7.49-5.66,33.79-12.84,38.37-10.85,8.72-4,8.72-4,18.34-18.65,37.3-21.25,14.67,28.59,14.82,29.36-1.6-27.83-10.54-27.9c-1.53,0-7.14-.17-9.63,3-2.38,3,4.11,6.83,2.06,7.41s-8.56,3.93-10.47,3.21c-11.77-4.43,8.11-11.11,8.41-11.23,5-2-15.37,6.1-18.81,8.56-2.48,1.77-11.77,9.17-9.17,12.07s4,13.11,7.49,15c16.74,8.95,36.83-6.95,40-9.4s-12.78,13.76-19.19,14.3c-18.67,1.56-23.33-2.86-25.83-4.46-2.79-1.77-8-13.51-8.54-13.64-8-1.89-3.27,27.75-5.05,30.33-.93,1.35-5.29,6.19-7.58,8.79s-13.51,6-25.55,6.17c-5.84.08-6.08-.75-7.4-2.28-7.86-9.11-6.72-10.7-7.18-17.88-.54-8.36,5-11.39,8.41-13.15,7.31-3.74,15.28-5.35,16.2-3.21s-6.91,1.92-7.07,5,15.48-2.53,15.48-2.53l-1.07-5.2s.91-1.38,5.19-.46,3.22-1.91,6.92,4.05c.27.43,2.63,17.59-.53,22.09-2.75,3.92-8.77,7.57-12.61,9-1.7.63-14.78,5.33-20.24,1.32-1.67-1.23-6.47-8.81-6.71-10.89-1.6-14-12.42-16.2,5.68,13.49.3.5,24.22,3.63,35.31-11,1.5-2,4-1.83,3.19-20.14-.16-4-.61-4.85-.15-8.24.63-4.7,6.27-8.12-2.6-5.52s-27.82,8.41-27.82,8.41l-18.65,13.3s10.7,32.1,13.6,35.77,14.83,27.06,20.49,30.11,20.33,7.19,20.33,7.19-5.5-27.06-6.12-30.88,2.45-8.1,9.63-11.62c4.48-2.19,5.76-6,8.94-8.74.56-.47,3.22.15,3.92-.24,1.72-1,1.9-2.7,5.05-2.86,11.77-.62,16.64.07,18.93.68s5.2-9.7,5.51-7.72,8.41,12.77,8.86,14.3-4-8.08-9.17-5.35c-4.19,2.22-8.86,8.1-10.39,11.46s-12,11.16-12,11.16-17.48,2.34-21.73-.75c-1.25-.91,1-4.9,1.76-4.87,3.35.15,10.81.09,14.67-.91a30.09,30.09,0,0,0,12.86-7.23,39.92,39.92,0,0,1,7.34-6.27s4.21-4.37-6.49-1.47a136,136,0,0,0-14.85,4.59c-4.44,1.53-9.75,5.43-11.29,6.48-.9.6-4.38,4.35-2.24,4.81s12.38-.76,14.67-.91c1.44-.1-12.66,1.34-14.65.76-.59-.17-2.62,4.81-2.14,4.93a51.93,51.93,0,0,0,9.54,1.69c2.21,0,12.55-.85,13,0,1,1.73,9.69,13.07,9.69,13.07s7.26,27.08,5.74,30.65,36.45-6.8,36.45-6.8.2-12.88-10.68-32.76c-1.89-3.46-35.63,22.06-35.63,22.06s-4.59,1.62-15.14-1.41-14.37-7.31-14.37-4.25-4.74,8.87,1.07,9.17,19.88,1.69,22.17,3.21a24.71,24.71,0,0,1,4.58,4.44s-.93,4.46-.5,6.4l.08.17a3.58,3.58,0,0,0,1.26,1.3c6,4.36,2.3,43.57,3.22,57.55s-9,100.44-9,100.44h11.47c4.58-2.53,6.65-129.56,6.65-143.77s-2.07-15.37-2.07-15.37-9.17-1.26-12-1.14h-.58c-2.27,0-30.07-6.23-30.07-6.23s-7.87-7.27-1.33,5.69c2.25,4.47,1.56,14.6,2.94,17.5s2.44,15.79,2.44,15.79,1.3,12.27-2.06,16.55-4.28,4.73-3.82,7.79,5,3.21-1.38,6.42-3.82,3.82-8.71,10.4-8.41,12.23-13.45,14.67-7.49,5.2-16.51,5.35-17.12,2-16.82,0,16-19.26,17.12-22.77-1.68-7.65-1.68-7.65,5.81-5,5.2-8.56,4-4.28-3.36-6.42-8.26-8.41-11.62-10.7-.92-5.5-.92-5.5l10.24,7,5.05,2.9s.61-8.4-2-10.09-10.24-2.29-10.24-2.29l-3.52-1.37s.61-11.93-.91-15.6-.85-6.33-3.37-7" transform="translate(-7340.84 -7011.33)"/></svg>